<?xml version="1.0" encoding="UTF-8" standalone="no"?>
<svg
   width="1024"
   height="1024"
   viewBox="0 0 1024 1024"
   version="1.1"
   id="svg1"
   sodipodi:docname="dandelion-icon.svg"
   inkscape:version="1.4.4 (dcaf3e7, 2026-05-05)"
   xmlns:inkscape="http://www.inkscape.org/namespaces/inkscape"
   xmlns:sodipodi="http://sodipodi.sourceforge.net/DTD/sodipodi-0.dtd"
   xmlns="http://www.w3.org/2000/svg"
   xmlns:svg="http://www.w3.org/2000/svg">
  <defs
     id="defs1" />
  <sodipodi:namedview
     id="namedview1"
     pagecolor="#ffffff"
     bordercolor="#000000"
     borderopacity="0.25"
     inkscape:showpageshadow="2"
     inkscape:pageopacity="0.0"
     inkscape:pagecheckerboard="0"
     inkscape:deskcolor="#d1d1d1"
     inkscape:zoom="0.57452426"
     inkscape:cx="530.00373"
     inkscape:cy="510.85745"
     inkscape:window-width="1326"
     inkscape:window-height="746"
     inkscape:window-x="0"
     inkscape:window-y="30"
     inkscape:window-maximized="0"
     inkscape:current-layer="svg1" />
  <path
     fill="#077b4f"
     d="m 661.2313,70.665526 c -8.72375,19.214875 -30.98857,56.303514 -22.50969,70.903254 14.46443,-6.03335 33.68909,-24.64761 27.35024,-1.89892 1.53608,16.55829 -67.91608,56.08766 -32.23635,52.17026 7.52173,-12.14852 25.5722,3.74644 32.46596,-19.20958 36.18613,31.27016 -29.06222,45.76646 -5.79038,54.72169 -20.72735,0.15769 -77.38935,25.58406 -32.75356,23.4244 15.48724,-9.02879 20.84565,-4.22138 27.86025,6.38376 12.48688,-9.13919 33.0822,-30.34504 25.3389,0.82518 -19.15914,15.39684 -11.05073,21.21244 -7.67729,33.42881 -34.01274,3.33297 -74.83785,18.17905 -83.16038,44.37462 22.22051,20.22547 43.2334,-33.14255 54.58052,-24.7783 2.81732,33.76394 56.82003,-16.68666 30.43498,22.60605 -12.4874,15.05751 -36.44075,24.64619 -6.56692,37.61633 -16.83658,24.05221 -58.12214,10.92464 -79.19054,32.60621 -34.88959,26.24521 36.87386,21.02231 48.31735,3.83834 10.05616,-8.67365 6.36089,22.63429 24.66589,5.99811 14.15939,-5.28306 33.96761,-10.44171 17.47372,13.69766 -7.04571,22.60519 -34.41466,22.58171 -11.14038,47.01875 19.85066,28.69472 -39.56483,3.35787 -47.50532,17.20231 -15.67268,11.21478 -76.24803,5.79018 -61.38113,28.88118 21.26835,9.39577 60.07524,-5.65652 73.56306,-14.44464 -3.08666,51.0299 35.14048,3.23099 51.33571,14.92442 -1.34692,42.26779 -53.27583,38.71312 -51.81498,60.72084 18.78928,7.93396 44.32786,30.87912 6.21024,27.89076 -29.11138,0.45676 -58.24086,2.16171 -87.14316,5.63551 -42.98237,10.83873 -8.05296,33.81569 15.71658,16.30255 17.3993,-8.30865 28.40148,-12.34959 33.74738,11.92692 14.35013,14.74177 77.21234,-0.1445 43.32267,26.13783 -20.27292,11.75585 -60.02832,2.19792 -42.58867,35.18917 -35.87038,-8.978 -69.71798,-4.60177 -100.71406,14.4324 -17.06214,14.69366 -35.68007,35.39414 -40.87956,52.68275 30.55089,-144.89847 65.96508,-298.44564 103.27032,-441.74367 11.21273,-61.34751 30.98872,-120.51718 47.69738,-180.45425 -51.97303,149.64926 -92.4485,303.10415 -129.11291,457.1628 -27.21636,106.14259 -32.55044,216.83642 -66.12383,321.50913 -2.18801,25.1955 -13.45112,29.52063 -36.42917,23.50454 -36.13126,9.23123 12.57988,-16.73713 14.15628,-34.05844 26.41083,-55.18757 35.05672,-127.59015 30.14851,-190.34102 -4.28056,-44.01232 -19.62277,-80.23535 -62.80539,-83.12655 -44.05231,-3.64921 26.51083,-21.06242 -9.33242,-30.32477 -7.64049,-15.99287 -22.42534,-79.75766 3.11524,-40.20906 15.70867,28.2942 37.77224,-27.88354 39.39183,5.96661 3.24257,22.54597 56.53133,53.99329 44.58478,19.35353 -15.85365,-36.33885 -55.48182,-56.82735 -94.033,-67.206 16.27767,-15.16215 27.08144,-21.41321 3.65466,-46.09453 -8.78404,-14.32399 -0.55696,-74.3354 16.79089,-32.74094 8.23885,23.49516 34.5729,5.48884 43.16945,-10.13576 14.79271,32.39065 50.15996,56.33577 64.27961,43.6638 -21.39871,-51.13702 -43.54865,-44.01044 -70.3523,-64.89156 -38.17587,-6.79545 -24.62067,-22.93281 -0.9847,-26.39909 30.16869,-6.54544 -19.87168,-46.94641 -4.87318,-70.80501 8.92655,-29.45512 25.22787,27.3398 38.67795,36.14459 6.0754,-72.1121 20.72385,-20.2807 23.78535,0.41708 13.12685,7.78467 25.0463,46.48623 37.12261,31.08234 -19.66145,-24.97045 -25.15184,-72.57071 -49.50583,-78.89124 -54.24578,-22.49943 18.03055,-3.6427 -9.26951,-32.87367 -5.16196,-16.28228 15.2819,-60.92551 25.8508,-24.53262 5.20805,28.35491 42.5438,-3.58696 31.64966,24.16653 8.46438,13.15498 40.48612,63.02989 24.23884,22.14579 -0.67989,-21.15415 -35.76277,-60.60942 -28.43592,-65.63171 26.15009,6.06983 -19.41425,-46.11283 7.45308,-47.82383 8.97604,27.17439 40.58886,26.84969 32.07628,31.95027 -4.01851,24.36301 34.00796,38.26187 16.93092,6.84405 -0.81973,-14.10587 -34.11794,-43.4387 -7.55297,-41.59834 -9.0899,-13.64945 -2.22229,-54.48711 14.11137,-43.1162 1.97537,17.33553 6.17442,20.32622 15.94444,36.21268 23.06891,5.57632 -11.69071,-43.95918 0.86418,-58.35175 1.97955,-14.05466 34.37338,-36.062592 20.73411,-6.87726 -1.94002,18.77536 14.93024,24.68341 11.62941,1.95504 7.52444,-25.573191 34.37532,-38.669758 58.1521,-45.060134 z"
     id="path1"
     sodipodi:nodetypes="cccccccccccccccccccsccccccccccccccccccccccccccccccccccccccccccccscccscc" />
</svg>
